<?xml version="1.0" encoding="utf-8"?>
<!-- Generator: Adobe Illustrator 27.2.0, SVG Export Plug-In . SVG Version: 6.00 Build 0)  -->
<svg version="1.1" id="Layer_1" focusable="false" xmlns="http://www.w3.org/2000/svg" xmlns:xlink="http://www.w3.org/1999/xlink"
	 x="0px" y="0px" viewBox="0 0 111 30" style="enable-background:new 0 0 111 30;" xml:space="preserve">
<style type="text/css">
	.st0{fill:#E50914;}
</style>
<g id="netflix-logo">
	<path id="Fill-14" class="st0" d="M105.1,14.3L111,30c-1.7-0.3-3.5-0.6-5.3-0.8l-3.3-8.7l-3.4,8c-1.7-0.3-3.3-0.4-5-0.6l6-13.8
		L94.5,0h5.1l3.1,7.9l3.3-7.9h5.1L105.1,14.3z M90.5,0h-4.6v27.2c1.5,0.1,3.1,0.2,4.6,0.3V0z M81.9,26.9c-4.2-0.3-8.4-0.5-12.7-0.6
		V0h4.7v21.9c2.7,0.1,5.4,0.3,8,0.4V26.9z M64.2,10.7v4.7h-6.4V26h-4.6V0h13.1v4.7h-8.5v6H64.2z M45.3,4.7v21.6
		c-1.6,0-3.2,0-4.7,0.1V4.7h-4.8V0h14.4v4.7H45.3z M30.7,15.6c-2.1,0-4.5,0-6.2,0.1v7c2.8-0.2,5.5-0.4,8.3-0.5v4.5l-13,1V0h13v4.7
		h-8.3V11c1.8,0,4.6-0.1,6.2-0.1V15.6z M4.8,13v16.4C3.1,29.5,1.6,29.7,0,30V0h4.5l6.1,17V0h4.7v28.1c-1.7,0.3-3.3,0.4-5.1,0.6
		L4.8,13z"/>
</g>
</svg>
